<svg xmlns="http://www.w3.org/2000/svg" xmlns:xlink="http://www.w3.org/1999/xlink" width="500" zoomAndPan="magnify" viewBox="0 0 375 374.999991" height="500" preserveAspectRatio="xMidYMid meet" version="1.0"><defs><g/></defs><rect x="-37.5" width="450" fill="#ffffff" y="-37.499999" height="449.999989" fill-opacity="1"/><rect x="-37.5" width="450" fill="#ffffff" y="-37.499999" height="449.999989" fill-opacity="1"/><g fill="#a63856" fill-opacity="1"><g transform="translate(62.092442, 191.814069)"><g><path d="M 34.15625 -2.796875 C 33.789062 -2.921875 33.375 -3.570312 32.90625 -4.75 C 32.4375 -5.9375 31.9375 -7.398438 31.40625 -9.140625 C 30.875 -10.890625 30.375 -12.695312 29.90625 -14.5625 C 29.445312 -16.425781 29.03125 -18.101562 28.65625 -19.59375 C 28.28125 -21.09375 28.03125 -22.1875 27.90625 -22.875 L 20.625 -22.78125 C 19.945312 -19.976562 19.359375 -17.191406 18.859375 -14.421875 C 18.359375 -11.648438 17.984375 -8.832031 17.734375 -5.96875 C 17.734375 -5.414062 17.46875 -5.140625 16.9375 -5.140625 C 16.414062 -5.140625 16.179688 -5.414062 16.234375 -5.96875 C 16.484375 -8.769531 16.84375 -11.585938 17.3125 -14.421875 C 17.78125 -17.253906 18.453125 -20.039062 19.328125 -22.78125 L 18.484375 -22.78125 C 18.171875 -21.65625 17.859375 -20.296875 17.546875 -18.703125 C 17.234375 -17.117188 16.9375 -15.566406 16.65625 -14.046875 C 16.375 -12.523438 16.140625 -11.25 15.953125 -10.21875 C 15.773438 -9.195312 15.6875 -8.6875 15.6875 -8.6875 L 15.125 -4.484375 C 14.9375 -2.367188 14.21875 -0.84375 12.96875 0.09375 C 11.726562 1.03125 10.359375 1.40625 8.859375 1.21875 C 7.367188 1.03125 6.109375 0.316406 5.078125 -0.921875 C 4.054688 -2.171875 3.703125 -3.882812 4.015625 -6.0625 C 4.390625 -8.800781 4.820312 -11.539062 5.3125 -14.28125 C 5.8125 -17.019531 6.40625 -19.726562 7.09375 -22.40625 C 6.65625 -22.34375 6.21875 -22.296875 5.78125 -22.265625 C 5.351562 -22.234375 4.953125 -22.21875 4.578125 -22.21875 C 4.703125 -22.53125 4.734375 -22.8125 4.671875 -23.0625 C 3.171875 -23.425781 2.078125 -24.226562 1.390625 -25.46875 C 0.710938 -26.71875 0.53125 -28.101562 0.84375 -29.625 C 1.15625 -31.15625 2.023438 -32.554688 3.453125 -33.828125 C 4.878906 -35.109375 6.992188 -35.96875 9.796875 -36.40625 C 10.484375 -39.519531 11.226562 -42.582031 12.03125 -45.59375 C 12.84375 -48.613281 13.84375 -51.554688 15.03125 -54.421875 C 15.59375 -55.660156 16.210938 -57.007812 16.890625 -58.46875 C 17.578125 -59.9375 18.429688 -61.210938 19.453125 -62.296875 C 20.484375 -63.390625 21.773438 -63.9375 23.328125 -63.9375 C 24.140625 -64 24.945312 -63.78125 25.75 -63.28125 C 26.5625 -62.789062 27.15625 -62.171875 27.53125 -61.421875 C 28.90625 -61.359375 30.039062 -60.875 30.9375 -59.96875 C 31.84375 -59.070312 32.359375 -57.875 32.484375 -56.375 C 32.609375 -54.507812 32.765625 -52.628906 32.953125 -50.734375 C 33.140625 -48.835938 33.328125 -46.984375 33.515625 -45.171875 C 33.578125 -45.109375 33.640625 -45.078125 33.703125 -45.078125 C 33.765625 -46.703125 33.84375 -48.304688 33.9375 -49.890625 C 34.03125 -51.472656 34.164062 -53.046875 34.34375 -54.609375 C 34.34375 -54.859375 34.390625 -54.296875 34.484375 -52.921875 C 34.578125 -51.554688 34.6875 -49.800781 34.8125 -47.65625 C 34.9375 -45.507812 35.0625 -43.359375 35.1875 -41.203125 C 35.3125 -39.054688 35.46875 -37.269531 35.65625 -35.84375 C 37.457031 -35.65625 38.851562 -35.046875 39.84375 -34.015625 C 40.84375 -32.992188 41.46875 -31.8125 41.71875 -30.46875 C 41.96875 -29.132812 41.84375 -27.8125 41.34375 -26.5 C 40.851562 -25.195312 39.953125 -24.140625 38.640625 -23.328125 C 39.265625 -20.597656 39.914062 -17.503906 40.59375 -14.046875 C 41.28125 -10.597656 41.8125 -7.472656 42.1875 -4.671875 C 42.4375 -2.554688 42.265625 -0.953125 41.671875 0.140625 C 41.085938 1.234375 40.3125 1.835938 39.34375 1.953125 C 38.375 2.078125 37.40625 1.734375 36.4375 0.921875 C 35.476562 0.117188 34.71875 -1.117188 34.15625 -2.796875 Z M 20.34375 -34.90625 C 21.03125 -35.03125 21.914062 -35.109375 23 -35.140625 C 24.09375 -35.171875 24.953125 -35.21875 25.578125 -35.28125 C 25.453125 -36.09375 25.3125 -37.242188 25.15625 -38.734375 C 25 -40.234375 24.8125 -41.835938 24.59375 -43.546875 C 24.375 -45.253906 24.109375 -46.828125 23.796875 -48.265625 C 23.054688 -45.648438 22.40625 -43.3125 21.84375 -41.25 C 21.28125 -39.195312 20.78125 -37.082031 20.34375 -34.90625 Z M 20.34375 -34.90625 "/></g></g></g><g fill="#a63856" fill-opacity="1"><g transform="translate(97.373996, 191.814069)"><g><path d="M 12.515625 -70 C 12.941406 -69.382812 13.171875 -68.640625 13.203125 -67.765625 C 13.234375 -66.890625 13.0625 -66.113281 12.6875 -65.4375 L 12.6875 -65.15625 C 12.257812 -63.90625 11.609375 -62.878906 10.734375 -62.078125 C 10.109375 -61.265625 9.332031 -60.609375 8.40625 -60.109375 L 8.3125 -60.109375 C 8.125 -59.921875 7.84375 -59.703125 7.46875 -59.453125 C 7.03125 -59.210938 6.671875 -59.273438 6.390625 -59.640625 C 6.109375 -60.015625 6.15625 -60.359375 6.53125 -60.671875 C 6.90625 -61.109375 7.265625 -61.5625 7.609375 -62.03125 C 7.953125 -62.5 8.1875 -62.976562 8.3125 -63.46875 C 8.375 -63.53125 8.40625 -63.625 8.40625 -63.75 C 7.78125 -63.75 7.234375 -64 6.765625 -64.5 C 6.296875 -65 5.9375 -65.5625 5.6875 -66.1875 C 5.257812 -67.050781 5.09375 -68.039062 5.1875 -69.15625 C 5.28125 -70.28125 5.789062 -71.0625 6.71875 -71.5 C 7.15625 -71.75 7.65625 -71.875 8.21875 -71.875 C 8.28125 -71.875 8.3125 -71.859375 8.3125 -71.828125 C 8.3125 -71.796875 8.34375 -71.78125 8.40625 -71.78125 L 8.59375 -71.78125 C 10.207031 -72.09375 11.515625 -71.5 12.515625 -70 Z M 12.515625 -70 "/></g></g></g><g fill="#a63856" fill-opacity="1"><g transform="translate(107.173795, 191.814069)"><g><path d="M 44.71875 -33.890625 C 44.78125 -33.078125 44.882812 -32.3125 45.03125 -31.59375 C 45.1875 -30.875 45.328125 -30.113281 45.453125 -29.3125 C 45.640625 -28.6875 45.578125 -28.078125 45.265625 -27.484375 C 44.960938 -26.898438 44.46875 -26.515625 43.78125 -26.328125 C 42.28125 -25.953125 41.0625 -26.257812 40.125 -27.25 C 39.195312 -28.25 38.5 -29.554688 38.03125 -31.171875 C 37.570312 -32.796875 37.25 -34.320312 37.0625 -35.75 C 37 -35.75 36.96875 -35.765625 36.96875 -35.796875 C 36.96875 -35.828125 36.9375 -35.84375 36.875 -35.84375 C 35.5 -37.832031 33.832031 -39.570312 31.875 -41.0625 C 29.914062 -42.5625 27.816406 -43.8125 25.578125 -44.8125 C 23.210938 -45.863281 20.785156 -46.671875 18.296875 -47.234375 L 22.125 -43.59375 C 23.613281 -42.15625 25.101562 -40.691406 26.59375 -39.203125 C 28.09375 -37.710938 29.523438 -36.1875 30.890625 -34.625 C 32.265625 -33.195312 33.632812 -31.75 35 -30.28125 C 36.375 -28.820312 37.648438 -27.316406 38.828125 -25.765625 C 39.703125 -24.703125 40.445312 -23.578125 41.0625 -22.390625 C 41.6875 -21.210938 42.125 -20.003906 42.375 -18.765625 C 42.875 -17.578125 43.25 -16.375 43.5 -15.15625 C 43.75 -13.945312 43.78125 -12.722656 43.59375 -11.484375 C 43.53125 -9.492188 42.875 -7.703125 41.625 -6.109375 C 40.382812 -4.523438 38.828125 -3.265625 36.953125 -2.328125 C 35.085938 -1.398438 33.160156 -0.875 31.171875 -0.75 L 30.890625 -0.75 C 29.335938 -0.5 27.703125 -0.453125 25.984375 -0.609375 C 24.273438 -0.765625 22.675781 -1.0625 21.1875 -1.5 C 19.132812 -1.925781 17.207031 -2.734375 15.40625 -3.921875 C 15.21875 -3.109375 14.953125 -2.34375 14.609375 -1.625 C 14.265625 -0.914062 13.78125 -0.3125 13.15625 0.1875 C 12.726562 0.625 12.1875 0.84375 11.53125 0.84375 C 10.875 0.84375 10.296875 0.625 9.796875 0.1875 C 9.296875 -0.3125 8.828125 -0.945312 8.390625 -1.71875 C 7.960938 -2.5 7.6875 -3.296875 7.5625 -4.109375 C 7.3125 -4.421875 7.109375 -4.789062 6.953125 -5.21875 C 6.796875 -5.65625 6.65625 -6.09375 6.53125 -6.53125 C 6.28125 -9.144531 5.890625 -11.757812 5.359375 -14.375 C 4.835938 -16.988281 4.234375 -19.570312 3.546875 -22.125 C 3.171875 -23.550781 2.875 -25.007812 2.65625 -26.5 C 2.4375 -28 2.234375 -29.492188 2.046875 -30.984375 C 1.867188 -32.296875 1.703125 -33.648438 1.546875 -35.046875 C 1.390625 -36.453125 1.4375 -37.835938 1.6875 -39.203125 C 1.863281 -40.078125 2.28125 -40.882812 2.9375 -41.625 C 3.59375 -42.375 4.390625 -42.8125 5.328125 -42.9375 C 6.441406 -43.0625 7.429688 -42.90625 8.296875 -42.46875 C 9.171875 -42.03125 9.796875 -41.253906 10.171875 -40.140625 C 11.171875 -37.085938 11.882812 -33.941406 12.3125 -30.703125 C 12.75 -27.472656 13.5 -24.300781 14.5625 -21.1875 C 15 -20.070312 15.507812 -18.953125 16.09375 -17.828125 C 16.6875 -16.710938 17.390625 -15.71875 18.203125 -14.84375 C 18.703125 -14.40625 19.195312 -13.9375 19.6875 -13.4375 C 20.1875 -12.9375 20.71875 -12.472656 21.28125 -12.046875 C 21.84375 -11.859375 22.398438 -11.71875 22.953125 -11.625 C 23.515625 -11.53125 24.078125 -11.453125 24.640625 -11.390625 C 26.566406 -11.203125 28.554688 -11.203125 30.609375 -11.390625 C 31.234375 -11.453125 31.9375 -11.5625 32.71875 -11.71875 C 33.5 -11.875 34.070312 -12.226562 34.4375 -12.78125 C 34.625 -12.96875 34.71875 -13.25 34.71875 -13.625 C 34.96875 -14.125 34.953125 -14.742188 34.671875 -15.484375 C 34.390625 -16.234375 34.160156 -16.796875 33.984375 -17.171875 C 33.921875 -17.421875 33.828125 -17.671875 33.703125 -17.921875 C 33.578125 -18.171875 33.453125 -18.421875 33.328125 -18.671875 C 32.890625 -19.234375 32.453125 -19.789062 32.015625 -20.34375 C 31.578125 -20.90625 31.109375 -21.46875 30.609375 -22.03125 C 29.179688 -23.769531 27.71875 -25.476562 26.21875 -27.15625 C 24.726562 -28.84375 23.175781 -30.492188 21.5625 -32.109375 C 20.9375 -32.796875 20.3125 -33.476562 19.6875 -34.15625 C 19.070312 -34.84375 18.421875 -35.5 17.734375 -36.125 L 16.328125 -37.25 C 14.148438 -39.050781 12.066406 -40.929688 10.078125 -42.890625 C 8.085938 -44.847656 6.222656 -46.945312 4.484375 -49.1875 C 3.671875 -50.375 2.9375 -51.632812 2.28125 -52.96875 C 1.632812 -54.3125 1.492188 -55.757812 1.859375 -57.3125 C 2.234375 -58.863281 3.039062 -60.078125 4.28125 -60.953125 C 5.53125 -61.828125 6.9375 -62.203125 8.5 -62.078125 C 9.550781 -62.015625 10.570312 -61.84375 11.5625 -61.5625 C 12.5625 -61.28125 13.5625 -60.984375 14.5625 -60.671875 C 15 -60.796875 15.46875 -60.765625 15.96875 -60.578125 C 18.507812 -59.828125 20.929688 -58.921875 23.234375 -57.859375 C 25.546875 -56.804688 27.789062 -55.566406 29.96875 -54.140625 C 31.019531 -53.515625 32.039062 -52.84375 33.03125 -52.125 C 34.03125 -51.414062 35 -50.625 35.9375 -49.75 L 36.40625 -49.28125 C 36.40625 -50.09375 36.40625 -50.882812 36.40625 -51.65625 C 36.40625 -52.4375 36.375 -53.234375 36.3125 -54.046875 C 36.3125 -55.285156 36.773438 -56.359375 37.703125 -57.265625 C 38.640625 -58.171875 39.703125 -58.625 40.890625 -58.625 C 42.253906 -58.625 43.320312 -58.171875 44.09375 -57.265625 C 44.875 -56.359375 45.328125 -55.285156 45.453125 -54.046875 C 45.765625 -51.867188 45.765625 -49.644531 45.453125 -47.375 C 45.140625 -45.101562 44.894531 -42.878906 44.71875 -40.703125 C 44.65625 -38.398438 44.65625 -36.128906 44.71875 -33.890625 Z M 44.71875 -33.890625 "/></g></g></g><g fill="#a63856" fill-opacity="1"><g transform="translate(146.18895, 191.814069)"><g><path d="M 42.375 -31.734375 C 41.570312 -30.242188 40.4375 -29.140625 38.96875 -28.421875 C 37.507812 -27.703125 35.90625 -27.28125 34.15625 -27.15625 C 32.414062 -27.03125 30.660156 -27.0625 28.890625 -27.25 C 27.117188 -27.4375 25.515625 -27.65625 24.078125 -27.90625 C 23.640625 -28.03125 23.21875 -28.125 22.8125 -28.1875 C 22.414062 -28.25 22 -28.3125 21.5625 -28.375 C 21.6875 -27.8125 21.8125 -27.25 21.9375 -26.6875 C 22.0625 -26.132812 22.15625 -25.609375 22.21875 -25.109375 C 22.65625 -22.804688 23.070312 -20.503906 23.46875 -18.203125 C 23.875 -15.898438 24.203125 -13.597656 24.453125 -11.296875 C 24.578125 -10.171875 24.609375 -9.03125 24.546875 -7.875 C 24.484375 -6.726562 24.296875 -5.628906 23.984375 -4.578125 C 23.546875 -3.015625 22.613281 -1.582031 21.1875 -0.28125 C 20.6875 0.15625 20.015625 0.515625 19.171875 0.796875 C 18.335938 1.078125 17.640625 0.875 17.078125 0.1875 C 16.578125 -0.5 16.28125 -1.257812 16.1875 -2.09375 C 16.101562 -2.9375 16 -3.765625 15.875 -4.578125 C 15.8125 -5.128906 15.734375 -5.703125 15.640625 -6.296875 C 15.546875 -6.890625 15.46875 -7.5 15.40625 -8.125 C 14.96875 -9.613281 14.59375 -11.195312 14.28125 -12.875 C 14.34375 -12.382812 14.40625 -11.90625 14.46875 -11.4375 C 14.53125 -10.96875 14.59375 -10.484375 14.65625 -9.984375 C 14.78125 -9.179688 14.890625 -8.375 14.984375 -7.5625 C 15.078125 -6.75 15.1875 -5.941406 15.3125 -5.140625 C 15.375 -4.515625 15.453125 -3.875 15.546875 -3.21875 C 15.640625 -2.5625 15.59375 -1.957031 15.40625 -1.40625 C 15.40625 -1.34375 15.375 -1.34375 15.3125 -1.40625 C 14.9375 -1.957031 14.71875 -2.625 14.65625 -3.40625 C 14.59375 -4.1875 14.5 -4.882812 14.375 -5.5 L 13.53125 -10.359375 C 13.28125 -11.972656 13.03125 -13.570312 12.78125 -15.15625 C 12.539062 -16.75 12.296875 -18.351562 12.046875 -19.96875 C 11.734375 -21.90625 11.4375 -23.835938 11.15625 -25.765625 C 10.875 -27.691406 10.578125 -29.617188 10.265625 -31.546875 C 7.273438 -32.734375 4.414062 -34.039062 1.6875 -35.46875 C 1.625 -35.53125 1.625 -35.59375 1.6875 -35.65625 C 1.75 -35.71875 1.804688 -35.71875 1.859375 -35.65625 C 3.234375 -35.03125 4.617188 -34.421875 6.015625 -33.828125 C 7.421875 -33.242188 8.804688 -32.703125 10.171875 -32.203125 C 10.109375 -32.515625 10.046875 -32.796875 9.984375 -33.046875 C 9.921875 -33.296875 9.859375 -33.546875 9.796875 -33.796875 C 8.742188 -34.222656 7.703125 -34.671875 6.671875 -35.140625 C 5.648438 -35.609375 4.609375 -36.0625 3.546875 -36.5 C 2.546875 -37 1.921875 -37.835938 1.671875 -39.015625 C 1.429688 -40.203125 1.554688 -41.226562 2.046875 -42.09375 C 2.484375 -42.78125 3.164062 -43.34375 4.09375 -43.78125 C 5.03125 -44.21875 5.90625 -44.28125 6.71875 -43.96875 L 7.28125 -43.6875 C 6.71875 -45.738281 6.125 -47.789062 5.5 -49.84375 C 4.882812 -51.894531 4.234375 -53.914062 3.546875 -55.90625 C 3.296875 -56.71875 3.390625 -57.453125 3.828125 -58.109375 C 4.265625 -58.765625 4.820312 -59.210938 5.5 -59.453125 C 5.4375 -59.890625 5.515625 -60.265625 5.734375 -60.578125 C 5.953125 -60.890625 6.1875 -61.171875 6.4375 -61.421875 C 8 -62.472656 9.695312 -62.828125 11.53125 -62.484375 C 13.363281 -62.148438 15.023438 -61.609375 16.515625 -60.859375 C 18.078125 -60.046875 19.585938 -59.1875 21.046875 -58.28125 C 22.515625 -57.382812 23.960938 -56.472656 25.390625 -55.546875 C 28.316406 -53.609375 31.160156 -51.535156 33.921875 -49.328125 C 36.691406 -47.117188 39.414062 -44.832031 42.09375 -42.46875 C 42.84375 -41.84375 43.15625 -41.128906 43.03125 -40.328125 C 43.59375 -39.390625 43.96875 -38.457031 44.15625 -37.53125 C 44.34375 -36.21875 44.265625 -35.09375 43.921875 -34.15625 C 43.578125 -33.226562 43.0625 -32.421875 42.375 -31.734375 Z M 31.171875 -41.71875 C 29.804688 -42.53125 28.453125 -43.320312 27.109375 -44.09375 C 25.773438 -44.875 24.425781 -45.640625 23.0625 -46.390625 C 22.0625 -46.890625 21.03125 -47.398438 19.96875 -47.921875 C 18.914062 -48.453125 17.859375 -48.9375 16.796875 -49.375 C 17.296875 -47.632812 17.765625 -45.859375 18.203125 -44.046875 C 18.640625 -42.242188 19.046875 -40.441406 19.421875 -38.640625 C 21.472656 -37.960938 23.460938 -37.40625 25.390625 -36.96875 C 26.941406 -36.65625 28.507812 -36.421875 30.09375 -36.265625 C 31.6875 -36.109375 33.257812 -36.09375 34.8125 -36.21875 C 35.125 -36.21875 35.453125 -36.234375 35.796875 -36.265625 C 36.140625 -36.296875 36.4375 -36.34375 36.6875 -36.40625 L 37.4375 -36.59375 C 37.3125 -36.84375 37.1875 -37.03125 37.0625 -37.15625 C 36.4375 -38.144531 35.5625 -39 34.4375 -39.71875 C 33.320312 -40.4375 32.234375 -41.101562 31.171875 -41.71875 Z M 26.328125 -29.21875 C 25.515625 -29.34375 24.671875 -29.484375 23.796875 -29.640625 C 22.929688 -29.796875 22.0625 -29.96875 21.1875 -30.15625 C 21.25 -30.03125 21.28125 -29.90625 21.28125 -29.78125 C 21.28125 -29.65625 21.3125 -29.53125 21.375 -29.40625 C 21.5625 -29.34375 21.734375 -29.296875 21.890625 -29.265625 C 22.046875 -29.234375 22.21875 -29.21875 22.40625 -29.21875 C 24.207031 -28.96875 26.054688 -28.734375 27.953125 -28.515625 C 29.847656 -28.296875 31.703125 -28.28125 33.515625 -28.46875 L 37.0625 -29.03125 C 37.0625 -29.09375 36.734375 -29.09375 36.078125 -29.03125 C 35.421875 -28.96875 35.09375 -28.96875 35.09375 -29.03125 C 33.539062 -28.84375 31.984375 -28.78125 30.421875 -28.84375 C 28.867188 -28.90625 27.503906 -29.03125 26.328125 -29.21875 Z M 21.65625 -12.78125 C 21.78125 -11.226562 21.828125 -9.640625 21.796875 -8.015625 C 21.765625 -6.398438 21.375 -4.878906 20.625 -3.453125 L 20.8125 -3.171875 C 21.1875 -3.359375 21.5 -3.578125 21.75 -3.828125 C 22.4375 -5.253906 22.734375 -6.742188 22.640625 -8.296875 C 22.546875 -9.859375 22.34375 -11.414062 22.03125 -12.96875 L 21.46875 -15.875 C 21.40625 -15.8125 21.40625 -15.59375 21.46875 -15.21875 C 21.53125 -14.84375 21.53125 -14.65625 21.46875 -14.65625 Z M 21.65625 -12.78125 "/></g></g></g><g fill="#a63856" fill-opacity="1"><g transform="translate(181.563843, 191.814069)"><g><path d="M 34.15625 -2.796875 C 33.789062 -2.921875 33.375 -3.570312 32.90625 -4.75 C 32.4375 -5.9375 31.9375 -7.398438 31.40625 -9.140625 C 30.875 -10.890625 30.375 -12.695312 29.90625 -14.5625 C 29.445312 -16.425781 29.03125 -18.101562 28.65625 -19.59375 C 28.28125 -21.09375 28.03125 -22.1875 27.90625 -22.875 L 20.625 -22.78125 C 19.945312 -19.976562 19.359375 -17.191406 18.859375 -14.421875 C 18.359375 -11.648438 17.984375 -8.832031 17.734375 -5.96875 C 17.734375 -5.414062 17.46875 -5.140625 16.9375 -5.140625 C 16.414062 -5.140625 16.179688 -5.414062 16.234375 -5.96875 C 16.484375 -8.769531 16.84375 -11.585938 17.3125 -14.421875 C 17.78125 -17.253906 18.453125 -20.039062 19.328125 -22.78125 L 18.484375 -22.78125 C 18.171875 -21.65625 17.859375 -20.296875 17.546875 -18.703125 C 17.234375 -17.117188 16.9375 -15.566406 16.65625 -14.046875 C 16.375 -12.523438 16.140625 -11.25 15.953125 -10.21875 C 15.773438 -9.195312 15.6875 -8.6875 15.6875 -8.6875 L 15.125 -4.484375 C 14.9375 -2.367188 14.21875 -0.84375 12.96875 0.09375 C 11.726562 1.03125 10.359375 1.40625 8.859375 1.21875 C 7.367188 1.03125 6.109375 0.316406 5.078125 -0.921875 C 4.054688 -2.171875 3.703125 -3.882812 4.015625 -6.0625 C 4.390625 -8.800781 4.820312 -11.539062 5.3125 -14.28125 C 5.8125 -17.019531 6.40625 -19.726562 7.09375 -22.40625 C 6.65625 -22.34375 6.21875 -22.296875 5.78125 -22.265625 C 5.351562 -22.234375 4.953125 -22.21875 4.578125 -22.21875 C 4.703125 -22.53125 4.734375 -22.8125 4.671875 -23.0625 C 3.171875 -23.425781 2.078125 -24.226562 1.390625 -25.46875 C 0.710938 -26.71875 0.53125 -28.101562 0.84375 -29.625 C 1.15625 -31.15625 2.023438 -32.554688 3.453125 -33.828125 C 4.878906 -35.109375 6.992188 -35.96875 9.796875 -36.40625 C 10.484375 -39.519531 11.226562 -42.582031 12.03125 -45.59375 C 12.84375 -48.613281 13.84375 -51.554688 15.03125 -54.421875 C 15.59375 -55.660156 16.210938 -57.007812 16.890625 -58.46875 C 17.578125 -59.9375 18.429688 -61.210938 19.453125 -62.296875 C 20.484375 -63.390625 21.773438 -63.9375 23.328125 -63.9375 C 24.140625 -64 24.945312 -63.78125 25.75 -63.28125 C 26.5625 -62.789062 27.15625 -62.171875 27.53125 -61.421875 C 28.90625 -61.359375 30.039062 -60.875 30.9375 -59.96875 C 31.84375 -59.070312 32.359375 -57.875 32.484375 -56.375 C 32.609375 -54.507812 32.765625 -52.628906 32.953125 -50.734375 C 33.140625 -48.835938 33.328125 -46.984375 33.515625 -45.171875 C 33.578125 -45.109375 33.640625 -45.078125 33.703125 -45.078125 C 33.765625 -46.703125 33.84375 -48.304688 33.9375 -49.890625 C 34.03125 -51.472656 34.164062 -53.046875 34.34375 -54.609375 C 34.34375 -54.859375 34.390625 -54.296875 34.484375 -52.921875 C 34.578125 -51.554688 34.6875 -49.800781 34.8125 -47.65625 C 34.9375 -45.507812 35.0625 -43.359375 35.1875 -41.203125 C 35.3125 -39.054688 35.46875 -37.269531 35.65625 -35.84375 C 37.457031 -35.65625 38.851562 -35.046875 39.84375 -34.015625 C 40.84375 -32.992188 41.46875 -31.8125 41.71875 -30.46875 C 41.96875 -29.132812 41.84375 -27.8125 41.34375 -26.5 C 40.851562 -25.195312 39.953125 -24.140625 38.640625 -23.328125 C 39.265625 -20.597656 39.914062 -17.503906 40.59375 -14.046875 C 41.28125 -10.597656 41.8125 -7.472656 42.1875 -4.671875 C 42.4375 -2.554688 42.265625 -0.953125 41.671875 0.140625 C 41.085938 1.234375 40.3125 1.835938 39.34375 1.953125 C 38.375 2.078125 37.40625 1.734375 36.4375 0.921875 C 35.476562 0.117188 34.71875 -1.117188 34.15625 -2.796875 Z M 20.34375 -34.90625 C 21.03125 -35.03125 21.914062 -35.109375 23 -35.140625 C 24.09375 -35.171875 24.953125 -35.21875 25.578125 -35.28125 C 25.453125 -36.09375 25.3125 -37.242188 25.15625 -38.734375 C 25 -40.234375 24.8125 -41.835938 24.59375 -43.546875 C 24.375 -45.253906 24.109375 -46.828125 23.796875 -48.265625 C 23.054688 -45.648438 22.40625 -43.3125 21.84375 -41.25 C 21.28125 -39.195312 20.78125 -37.082031 20.34375 -34.90625 Z M 20.34375 -34.90625 "/></g></g></g><g fill="#a63856" fill-opacity="1"><g transform="translate(216.845391, 191.814069)"><g><path d="M 44.984375 -35.375 C 46.546875 -33.007812 47.28125 -30.238281 47.1875 -27.0625 C 47.09375 -23.894531 46.703125 -21.003906 46.015625 -18.390625 C 45.390625 -16.023438 44.484375 -13.691406 43.296875 -11.390625 C 42.117188 -9.085938 40.535156 -7.15625 38.546875 -5.59375 C 35.378906 -3.050781 31.660156 -1.359375 27.390625 -0.515625 C 23.128906 0.328125 19.039062 -0.03125 15.125 -1.59375 C 11.320312 -3.144531 8.003906 -5.519531 5.171875 -8.71875 C 2.347656 -11.925781 0.5 -15.585938 -0.375 -19.703125 C -0.5625 -20.691406 -0.71875 -21.695312 -0.84375 -22.71875 C -0.96875 -23.75 -1.03125 -24.765625 -1.03125 -25.765625 C -0.96875 -29.179688 -0.53125 -32.523438 0.28125 -35.796875 C 1.09375 -39.066406 2.554688 -42.039062 4.671875 -44.71875 C 6.097656 -46.582031 7.757812 -48.476562 9.65625 -50.40625 C 11.5625 -52.332031 13.476562 -53.984375 15.40625 -55.359375 C 17.207031 -56.660156 19.070312 -57.875 21 -59 C 21.9375 -59.550781 22.960938 -59.984375 24.078125 -60.296875 C 25.203125 -60.609375 26.320312 -60.703125 27.4375 -60.578125 C 28.4375 -60.515625 29.210938 -60.171875 29.765625 -59.546875 C 30.328125 -58.929688 30.609375 -58.21875 30.609375 -57.40625 C 30.921875 -56.84375 31.078125 -56.265625 31.078125 -55.671875 C 31.078125 -55.085938 31.046875 -54.453125 30.984375 -53.765625 C 30.921875 -53.390625 30.890625 -52.609375 30.890625 -51.421875 C 30.890625 -50.242188 30.890625 -48.90625 30.890625 -47.40625 C 30.890625 -45.914062 30.90625 -44.503906 30.9375 -43.171875 C 30.96875 -41.835938 30.984375 -40.796875 30.984375 -40.046875 L 31.265625 -31.171875 C 31.265625 -30.367188 31.28125 -29.578125 31.3125 -28.796875 C 31.34375 -28.015625 31.390625 -27.253906 31.453125 -26.515625 C 31.453125 -25.890625 31.46875 -25.25 31.5 -24.59375 C 31.53125 -23.9375 31.484375 -23.300781 31.359375 -22.6875 C 31.296875 -22.4375 31.125 -22.25 30.84375 -22.125 C 30.570312 -22 30.3125 -22 30.0625 -22.125 C 29.75 -22.375 29.5625 -22.53125 29.5 -22.59375 C 29.375 -22.53125 29.25 -22.515625 29.125 -22.546875 C 29 -22.578125 28.875 -22.59375 28.75 -22.59375 C 28.125 -22.78125 27.609375 -23.085938 27.203125 -23.515625 C 26.804688 -23.953125 26.453125 -24.453125 26.140625 -25.015625 C 25.953125 -25.328125 25.8125 -25.640625 25.71875 -25.953125 C 25.625 -26.265625 25.515625 -26.546875 25.390625 -26.796875 L 25.109375 -26.796875 L 25.109375 -26.515625 C 25.421875 -25.453125 25.914062 -24.34375 26.59375 -23.1875 C 27.28125 -22.039062 28.3125 -21.59375 29.6875 -21.84375 C 30.363281 -21.96875 30.84375 -21.8125 31.125 -21.375 C 31.40625 -20.9375 31.46875 -20.46875 31.3125 -19.96875 C 31.15625 -19.476562 30.738281 -19.203125 30.0625 -19.140625 C 28.875 -19.015625 27.703125 -19.289062 26.546875 -19.96875 C 25.398438 -20.65625 24.578125 -21.5625 24.078125 -22.6875 C 23.460938 -24.113281 23.109375 -25.585938 23.015625 -27.109375 C 22.921875 -28.640625 22.84375 -30.148438 22.78125 -31.640625 L 22.21875 -49.65625 C 22.03125 -49.53125 21.84375 -49.390625 21.65625 -49.234375 C 21.46875 -49.078125 21.25 -48.9375 21 -48.8125 C 17.820312 -46.382812 15.332031 -43.582031 13.53125 -40.40625 C 11.726562 -37.238281 10.453125 -33.664062 9.703125 -29.6875 C 9.640625 -29.3125 9.59375 -29.078125 9.5625 -28.984375 C 9.53125 -28.890625 9.515625 -28.6875 9.515625 -28.375 C 9.453125 -28.125 9.421875 -27.875 9.421875 -27.625 C 9.421875 -27.375 9.421875 -27.128906 9.421875 -26.890625 C 9.359375 -25.765625 9.421875 -24.671875 9.609375 -23.609375 C 9.796875 -22.554688 10.046875 -21.5 10.359375 -20.4375 C 11.234375 -17.695312 12.539062 -15.207031 14.28125 -12.96875 C 16.019531 -10.726562 18.414062 -9.515625 21.46875 -9.328125 C 21.65625 -9.328125 21.859375 -9.3125 22.078125 -9.28125 C 22.296875 -9.25 22.5 -9.234375 22.6875 -9.234375 C 26.289062 -9.359375 29.367188 -10.539062 31.921875 -12.78125 C 32.984375 -13.78125 33.789062 -14.8125 34.34375 -15.875 C 35.21875 -17.363281 35.78125 -18.960938 36.03125 -20.671875 C 36.28125 -22.390625 36.375 -24.054688 36.3125 -25.671875 C 36.25 -26.421875 36.1875 -27.148438 36.125 -27.859375 C 36.0625 -28.578125 35.875 -29.25 35.5625 -29.875 C 34.9375 -31.238281 34.765625 -32.617188 35.046875 -34.015625 C 35.328125 -35.421875 36.15625 -36.53125 37.53125 -37.34375 C 38.832031 -38.144531 40.195312 -38.328125 41.625 -37.890625 C 43.0625 -37.460938 44.179688 -36.625 44.984375 -35.375 Z M 24.078125 -50.96875 C 23.640625 -50.59375 23.144531 -50.25 22.59375 -49.9375 C 22.71875 -48.382812 22.867188 -46.828125 23.046875 -45.265625 C 23.234375 -43.710938 23.390625 -42.160156 23.515625 -40.609375 L 23.984375 -40.609375 C 23.921875 -42.347656 23.890625 -44.070312 23.890625 -45.78125 C 23.890625 -47.5 23.953125 -49.226562 24.078125 -50.96875 Z M 35.46875 -30.0625 C 35.46875 -30.125 35.453125 -30.15625 35.421875 -30.15625 C 35.390625 -30.15625 35.375 -30.1875 35.375 -30.25 C 35.375 -30.25 35.390625 -30.234375 35.421875 -30.203125 C 35.453125 -30.171875 35.46875 -30.125 35.46875 -30.0625 Z M 35.5625 -29.875 C 35.5 -29.9375 35.46875 -30 35.46875 -30.0625 C 35.46875 -30 35.484375 -29.96875 35.515625 -29.96875 C 35.546875 -29.96875 35.5625 -29.9375 35.5625 -29.875 Z M 35.5625 -29.875 "/></g></g></g><g fill="#a63856" fill-opacity="1"><g transform="translate(256.887282, 191.814069)"><g><path d="M 2.140625 -49.28125 C 5.253906 -50.90625 8.488281 -52.273438 11.84375 -53.390625 C 15.207031 -54.515625 18.570312 -55.507812 21.9375 -56.375 L 24.078125 -56.9375 C 26.003906 -57.3125 27.929688 -57.671875 29.859375 -58.015625 C 31.796875 -58.359375 33.757812 -58.59375 35.75 -58.71875 C 36.1875 -58.78125 36.609375 -58.8125 37.015625 -58.8125 C 37.421875 -58.8125 37.835938 -58.8125 38.265625 -58.8125 C 36.460938 -58.375 34.628906 -57.921875 32.765625 -57.453125 C 30.898438 -56.984375 29.0625 -56.53125 27.25 -56.09375 C 24.082031 -55.414062 20.925781 -54.6875 17.78125 -53.90625 C 14.632812 -53.125 11.507812 -52.207031 8.40625 -51.15625 C 7.34375 -50.84375 6.296875 -50.484375 5.265625 -50.078125 C 4.242188 -49.671875 3.203125 -49.21875 2.140625 -48.71875 C 1.898438 -48.84375 1.898438 -49.03125 2.140625 -49.28125 Z M 54.515625 -11.296875 C 54.390625 -10.734375 54.078125 -10.421875 53.578125 -10.359375 C 50.160156 -9.734375 46.722656 -8.96875 43.265625 -8.0625 C 39.804688 -7.164062 36.429688 -6.128906 33.140625 -4.953125 C 31.578125 -4.390625 30.003906 -3.828125 28.421875 -3.265625 C 26.835938 -2.703125 25.265625 -2.082031 23.703125 -1.40625 L 23.609375 -1.40625 C 23.546875 -1.34375 23.453125 -1.296875 23.328125 -1.265625 C 23.210938 -1.234375 23.09375 -1.1875 22.96875 -1.125 C 22.46875 -0.875 21.953125 -0.65625 21.421875 -0.46875 C 20.890625 -0.28125 20.375 -0.0625 19.875 0.1875 L 19.78125 0.28125 C 19.414062 0.53125 18.71875 0.84375 17.6875 1.21875 C 16.664062 1.59375 15.703125 1.898438 14.796875 2.140625 C 13.890625 2.390625 13.4375 2.515625 13.4375 2.515625 C 13.4375 2.515625 13.328125 2.53125 13.109375 2.5625 C 12.890625 2.59375 12.691406 2.609375 12.515625 2.609375 C 11.765625 2.734375 11.015625 2.734375 10.265625 2.609375 C 9.515625 2.484375 8.957031 2.019531 8.59375 1.21875 C 8.40625 0.84375 8.375 0.40625 8.5 -0.09375 C 7.3125 -0.59375 6.390625 -1.445312 5.734375 -2.65625 C 5.085938 -3.875 4.976562 -5.070312 5.40625 -6.25 C 5.164062 -7.875 4.96875 -9.507812 4.8125 -11.15625 C 4.65625 -12.800781 4.515625 -14.4375 4.390625 -16.0625 L 3.265625 -27.25 L 2.140625 -37.890625 C 0.960938 -39.203125 0.46875 -40.726562 0.65625 -42.46875 C 0.84375 -44.207031 1.617188 -45.671875 2.984375 -46.859375 C 3.046875 -46.984375 3.109375 -47.109375 3.171875 -47.234375 C 3.234375 -47.359375 3.296875 -47.484375 3.359375 -47.609375 C 4.359375 -48.046875 5.351562 -48.445312 6.34375 -48.8125 C 7.34375 -49.1875 8.335938 -49.53125 9.328125 -49.84375 C 12.441406 -50.90625 15.566406 -51.820312 18.703125 -52.59375 C 21.847656 -53.375 25.007812 -54.078125 28.1875 -54.703125 C 30.675781 -55.265625 33.132812 -55.867188 35.5625 -56.515625 C 37.988281 -57.171875 40.414062 -57.8125 42.84375 -58.4375 C 43.15625 -58.375 43.484375 -58.328125 43.828125 -58.296875 C 44.171875 -58.265625 44.46875 -58.1875 44.71875 -58.0625 L 46.203125 -57.5 C 46.453125 -57.3125 46.703125 -57.109375 46.953125 -56.890625 C 47.203125 -56.671875 47.453125 -56.46875 47.703125 -56.28125 C 48.015625 -55.289062 48.226562 -54.3125 48.34375 -53.34375 C 48.46875 -52.382812 48.441406 -51.4375 48.265625 -50.5 L 43.59375 -49.09375 C 42.59375 -48.78125 41.546875 -48.46875 40.453125 -48.15625 C 39.367188 -47.851562 38.300781 -47.546875 37.25 -47.234375 C 37 -47.109375 36.8125 -47.046875 36.6875 -47.046875 C 35.5 -46.734375 34.113281 -46.34375 32.53125 -45.875 C 30.945312 -45.40625 29.359375 -44.9375 27.765625 -44.46875 C 26.179688 -44.007812 24.828125 -43.59375 23.703125 -43.21875 C 22.585938 -42.84375 21.90625 -42.59375 21.65625 -42.46875 C 20.164062 -41.96875 18.671875 -41.4375 17.171875 -40.875 C 15.679688 -40.320312 14.21875 -39.734375 12.78125 -39.109375 L 12.59375 -38.921875 C 12.65625 -38.609375 12.734375 -38.09375 12.828125 -37.375 C 12.921875 -36.664062 13.015625 -36 13.109375 -35.375 C 13.203125 -34.75 13.25 -34.34375 13.25 -34.15625 C 15.863281 -35.28125 18.460938 -36.382812 21.046875 -37.46875 C 23.628906 -38.5625 26.257812 -39.609375 28.9375 -40.609375 C 30.425781 -40.984375 31.929688 -41.367188 33.453125 -41.765625 C 34.984375 -42.171875 36.492188 -42.59375 37.984375 -43.03125 L 39.203125 -43.3125 C 39.765625 -43.4375 40.304688 -43.515625 40.828125 -43.546875 C 41.359375 -43.578125 41.90625 -43.625 42.46875 -43.6875 C 43.65625 -43.75 44.773438 -43.671875 45.828125 -43.453125 C 46.890625 -43.234375 47.734375 -42.5625 48.359375 -41.4375 C 48.472656 -41.320312 48.546875 -41.203125 48.578125 -41.078125 C 48.609375 -40.953125 48.65625 -40.828125 48.71875 -40.703125 C 48.84375 -40.515625 48.9375 -40.328125 49 -40.140625 C 49.0625 -39.953125 49.125 -39.765625 49.1875 -39.578125 C 49.25 -39.515625 49.3125 -39.484375 49.375 -39.484375 C 50.25 -39.046875 50.78125 -38.269531 50.96875 -37.15625 C 51.15625 -36.28125 51.015625 -35.390625 50.546875 -34.484375 C 50.078125 -33.585938 49.40625 -32.921875 48.53125 -32.484375 C 47.539062 -32.046875 46.53125 -31.78125 45.5 -31.6875 C 44.476562 -31.59375 43.4375 -31.421875 42.375 -31.171875 C 41.257812 -30.984375 40.125 -30.78125 38.96875 -30.5625 C 37.820312 -30.351562 36.6875 -30.09375 35.5625 -29.78125 C 33.320312 -29.15625 31.097656 -28.484375 28.890625 -27.765625 C 26.679688 -27.054688 24.488281 -26.234375 22.3125 -25.296875 C 20.9375 -24.734375 19.609375 -24.140625 18.328125 -23.515625 C 17.054688 -22.898438 15.769531 -22.25 14.46875 -21.5625 L 15.03125 -15.5 C 15.03125 -15.4375 15.03125 -15.390625 15.03125 -15.359375 C 15.03125 -15.328125 15.03125 -15.25 15.03125 -15.125 L 15.3125 -15.3125 C 16.363281 -15.8125 17.398438 -16.257812 18.421875 -16.65625 C 19.453125 -17.0625 20.46875 -17.484375 21.46875 -17.921875 L 29.40625 -21 C 30.09375 -21.3125 30.789062 -21.59375 31.5 -21.84375 C 32.21875 -22.09375 32.921875 -22.34375 33.609375 -22.59375 C 34.722656 -23.03125 35.835938 -23.445312 36.953125 -23.84375 C 38.078125 -24.25 39.203125 -24.640625 40.328125 -25.015625 L 43.96875 -26.140625 C 44.46875 -26.265625 44.960938 -26.429688 45.453125 -26.640625 C 45.953125 -26.859375 46.453125 -27.03125 46.953125 -27.15625 C 48.753906 -27.53125 50.226562 -27.375 51.375 -26.6875 C 52.53125 -26.007812 53.453125 -25.015625 54.140625 -23.703125 C 54.828125 -22.398438 55.335938 -20.96875 55.671875 -19.40625 C 56.015625 -17.851562 56.21875 -16.425781 56.28125 -15.125 C 56.34375 -14.3125 56.203125 -13.578125 55.859375 -12.921875 C 55.523438 -12.273438 55.078125 -11.734375 54.515625 -11.296875 Z M 31.921875 -31.078125 C 30.492188 -30.648438 29.046875 -30.21875 27.578125 -29.78125 C 26.117188 -29.34375 24.675781 -28.875 23.25 -28.375 C 22.3125 -28.125 21.390625 -27.859375 20.484375 -27.578125 C 19.585938 -27.296875 18.703125 -27.035156 17.828125 -26.796875 C 17.640625 -25.734375 17.140625 -24.859375 16.328125 -24.171875 C 18.628906 -25.359375 20.976562 -26.414062 23.375 -27.34375 C 25.769531 -28.28125 28.125 -29.21875 30.4375 -30.15625 C 30.925781 -30.394531 31.453125 -30.609375 32.015625 -30.796875 Z M 11.296875 1.21875 C 11.984375 1.28125 12.757812 1.296875 13.625 1.265625 C 14.5 1.234375 15 1.1875 15.125 1.125 C 15.25 1.125 15.34375 1.09375 15.40625 1.03125 C 15.78125 0.84375 16.148438 0.65625 16.515625 0.46875 C 16.890625 0.28125 17.234375 0.09375 17.546875 -0.09375 C 18.296875 -0.46875 19.023438 -0.84375 19.734375 -1.21875 C 20.453125 -1.59375 21.15625 -1.960938 21.84375 -2.328125 L 21.84375 -2.515625 C 21.03125 -2.203125 20.1875 -1.890625 19.3125 -1.578125 C 18.445312 -1.273438 17.578125 -0.96875 16.703125 -0.65625 C 15.835938 -0.34375 14.953125 -0.015625 14.046875 0.328125 C 13.140625 0.671875 12.222656 0.96875 11.296875 1.21875 Z M 11.296875 1.21875 "/></g></g></g><g fill="#2b2b2b" fill-opacity="1"><g transform="translate(140.560551, 212.933558)"><g><path d="M 4.5625 0.203125 C 4.019531 0.203125 3.46875 0.148438 2.90625 0.046875 C 2.351562 -0.046875 1.835938 -0.179688 1.359375 -0.359375 C 0.890625 -0.546875 0.5 -0.753906 0.1875 -0.984375 L 1.03125 -2.515625 C 1.3125 -2.296875 1.648438 -2.101562 2.046875 -1.9375 C 2.453125 -1.78125 2.882812 -1.648438 3.34375 -1.546875 C 3.800781 -1.453125 4.253906 -1.40625 4.703125 -1.40625 C 5.203125 -1.40625 5.59375 -1.457031 5.875 -1.5625 C 6.164062 -1.675781 6.3125 -1.828125 6.3125 -2.015625 C 6.3125 -2.160156 6.191406 -2.28125 5.953125 -2.375 C 5.722656 -2.46875 5.347656 -2.539062 4.828125 -2.59375 L 3.546875 -2.75 C 2.429688 -2.863281 1.625 -3.082031 1.125 -3.40625 C 0.625 -3.738281 0.375 -4.210938 0.375 -4.828125 C 0.382812 -5.316406 0.5625 -5.738281 0.90625 -6.09375 C 1.257812 -6.445312 1.75 -6.710938 2.375 -6.890625 C 3.007812 -7.066406 3.742188 -7.15625 4.578125 -7.15625 C 5.304688 -7.15625 5.992188 -7.078125 6.640625 -6.921875 C 7.296875 -6.765625 7.84375 -6.550781 8.28125 -6.28125 L 7.578125 -4.8125 C 7.191406 -5.0625 6.734375 -5.257812 6.203125 -5.40625 C 5.671875 -5.550781 5.132812 -5.625 4.59375 -5.625 C 4.101562 -5.613281 3.691406 -5.550781 3.359375 -5.4375 C 3.035156 -5.332031 2.875 -5.1875 2.875 -5 C 2.863281 -4.875 2.957031 -4.769531 3.15625 -4.6875 C 3.363281 -4.601562 3.695312 -4.539062 4.15625 -4.5 L 5.4375 -4.359375 C 6.613281 -4.242188 7.46875 -4.015625 8 -3.671875 C 8.53125 -3.335938 8.796875 -2.851562 8.796875 -2.21875 C 8.804688 -1.738281 8.632812 -1.316406 8.28125 -0.953125 C 7.9375 -0.585938 7.445312 -0.300781 6.8125 -0.09375 C 6.175781 0.101562 5.425781 0.203125 4.5625 0.203125 Z M 4.5625 0.203125 "/></g></g></g><g fill="#2b2b2b" fill-opacity="1"><g transform="translate(149.416771, 212.933558)"><g><path d="M 2.78125 0 L 2.78125 -5.15625 L 0.09375 -5.15625 L 0.09375 -6.953125 L 8.046875 -6.953125 L 8.046875 -5.15625 L 5.34375 -5.15625 L 5.34375 0 Z M 2.78125 0 "/></g></g></g><g fill="#2b2b2b" fill-opacity="1"><g transform="translate(157.409669, 212.933558)"><g><path d="M 8.09375 0.1875 C 7.738281 0.1875 7.4375 0.125 7.1875 0 C 6.9375 -0.113281 6.722656 -0.257812 6.546875 -0.4375 C 6.367188 -0.625 6.210938 -0.816406 6.078125 -1.015625 L 5.671875 -1.671875 C 5.535156 -1.878906 5.363281 -2.035156 5.15625 -2.140625 C 4.957031 -2.242188 4.734375 -2.296875 4.484375 -2.296875 L 3.046875 -2.296875 L 3.046875 0 L 0.484375 0 L 0.484375 -6.953125 L 6.34375 -6.953125 C 7.28125 -6.953125 8.003906 -6.757812 8.515625 -6.375 C 9.023438 -5.988281 9.28125 -5.445312 9.28125 -4.75 C 9.28125 -4.21875 9.101562 -3.773438 8.75 -3.421875 C 8.394531 -3.078125 7.898438 -2.847656 7.265625 -2.734375 L 7.265625 -2.71875 C 7.378906 -2.675781 7.488281 -2.609375 7.59375 -2.515625 C 7.695312 -2.421875 7.789062 -2.3125 7.875 -2.1875 L 8.359375 -1.46875 C 8.429688 -1.375 8.507812 -1.300781 8.59375 -1.25 C 8.6875 -1.195312 8.804688 -1.171875 8.953125 -1.171875 C 9.035156 -1.171875 9.125 -1.1875 9.21875 -1.21875 C 9.320312 -1.257812 9.398438 -1.3125 9.453125 -1.375 L 9.875 -0.34375 C 9.75 -0.238281 9.582031 -0.144531 9.375 -0.0625 C 9.175781 0.0195312 8.960938 0.0820312 8.734375 0.125 C 8.515625 0.164062 8.300781 0.1875 8.09375 0.1875 Z M 3.046875 -3.71875 L 5.5625 -3.71875 C 5.925781 -3.71875 6.207031 -3.796875 6.40625 -3.953125 C 6.613281 -4.109375 6.71875 -4.320312 6.71875 -4.59375 C 6.71875 -4.851562 6.613281 -5.054688 6.40625 -5.203125 C 6.207031 -5.359375 5.925781 -5.4375 5.5625 -5.4375 L 3.046875 -5.4375 Z M 3.046875 -3.71875 "/></g></g></g><g fill="#2b2b2b" fill-opacity="1"><g transform="translate(167.138905, 212.933558)"><g><path d="M 0.484375 0 L 0.484375 -6.953125 L 7.828125 -6.953125 L 7.828125 -5.375 L 2.96875 -5.375 L 2.96875 -4.21875 L 7.4375 -4.21875 L 7.4375 -2.859375 L 2.96875 -2.859375 L 2.96875 -1.578125 L 7.921875 -1.578125 L 7.921875 0 Z M 0.484375 0 "/></g></g></g><g fill="#2b2b2b" fill-opacity="1"><g transform="translate(175.122105, 212.933558)"><g><path d="M 0.484375 0 L 0.484375 -6.953125 L 7.828125 -6.953125 L 7.828125 -5.375 L 2.96875 -5.375 L 2.96875 -4.21875 L 7.4375 -4.21875 L 7.4375 -2.859375 L 2.96875 -2.859375 L 2.96875 -1.578125 L 7.921875 -1.578125 L 7.921875 0 Z M 0.484375 0 "/></g></g></g><g fill="#2b2b2b" fill-opacity="1"><g transform="translate(183.105304, 212.933558)"><g><path d="M 2.78125 0 L 2.78125 -5.15625 L 0.09375 -5.15625 L 0.09375 -6.953125 L 8.046875 -6.953125 L 8.046875 -5.15625 L 5.34375 -5.15625 L 5.34375 0 Z M 2.78125 0 "/></g></g></g><g fill="#2b2b2b" fill-opacity="1"><g transform="translate(191.098201, 212.933558)"><g><path d="M 3.015625 0 L -0.015625 -6.953125 L 2.59375 -6.953125 L 4.5625 -1.96875 L 4.578125 -1.96875 L 6.5625 -6.953125 L 9.375 -6.953125 L 11.375 -1.96875 L 11.390625 -1.96875 L 13.34375 -6.953125 L 15.9375 -6.953125 L 12.921875 0 L 10.046875 0 L 7.984375 -4.984375 L 7.96875 -4.984375 L 5.875 0 Z M 3.015625 0 "/></g></g></g><g fill="#2b2b2b" fill-opacity="1"><g transform="translate(206.890056, 212.933558)"><g><path d="M 0.484375 0 L 0.484375 -6.953125 L 7.828125 -6.953125 L 7.828125 -5.375 L 2.96875 -5.375 L 2.96875 -4.21875 L 7.4375 -4.21875 L 7.4375 -2.859375 L 2.96875 -2.859375 L 2.96875 -1.578125 L 7.921875 -1.578125 L 7.921875 0 Z M 0.484375 0 "/></g></g></g><g fill="#2b2b2b" fill-opacity="1"><g transform="translate(214.873255, 212.933558)"><g><path d="M 0 0 L 3.46875 -6.953125 L 6.4375 -6.953125 L 9.8125 0 L 7.171875 0 L 6.640625 -1.203125 L 3.1875 -1.203125 L 2.65625 0 Z M 3.671875 -2.625 L 6.15625 -2.625 L 4.921875 -5.390625 L 4.90625 -5.390625 Z M 3.671875 -2.625 "/></g></g></g><g fill="#2b2b2b" fill-opacity="1"><g transform="translate(224.563691, 212.933558)"><g><path d="M 8.09375 0.1875 C 7.738281 0.1875 7.4375 0.125 7.1875 0 C 6.9375 -0.113281 6.722656 -0.257812 6.546875 -0.4375 C 6.367188 -0.625 6.210938 -0.816406 6.078125 -1.015625 L 5.671875 -1.671875 C 5.535156 -1.878906 5.363281 -2.035156 5.15625 -2.140625 C 4.957031 -2.242188 4.734375 -2.296875 4.484375 -2.296875 L 3.046875 -2.296875 L 3.046875 0 L 0.484375 0 L 0.484375 -6.953125 L 6.34375 -6.953125 C 7.28125 -6.953125 8.003906 -6.757812 8.515625 -6.375 C 9.023438 -5.988281 9.28125 -5.445312 9.28125 -4.75 C 9.28125 -4.21875 9.101562 -3.773438 8.75 -3.421875 C 8.394531 -3.078125 7.898438 -2.847656 7.265625 -2.734375 L 7.265625 -2.71875 C 7.378906 -2.675781 7.488281 -2.609375 7.59375 -2.515625 C 7.695312 -2.421875 7.789062 -2.3125 7.875 -2.1875 L 8.359375 -1.46875 C 8.429688 -1.375 8.507812 -1.300781 8.59375 -1.25 C 8.6875 -1.195312 8.804688 -1.171875 8.953125 -1.171875 C 9.035156 -1.171875 9.125 -1.1875 9.21875 -1.21875 C 9.320312 -1.257812 9.398438 -1.3125 9.453125 -1.375 L 9.875 -0.34375 C 9.75 -0.238281 9.582031 -0.144531 9.375 -0.0625 C 9.175781 0.0195312 8.960938 0.0820312 8.734375 0.125 C 8.515625 0.164062 8.300781 0.1875 8.09375 0.1875 Z M 3.046875 -3.71875 L 5.5625 -3.71875 C 5.925781 -3.71875 6.207031 -3.796875 6.40625 -3.953125 C 6.613281 -4.109375 6.71875 -4.320312 6.71875 -4.59375 C 6.71875 -4.851562 6.613281 -5.054688 6.40625 -5.203125 C 6.207031 -5.359375 5.925781 -5.4375 5.5625 -5.4375 L 3.046875 -5.4375 Z M 3.046875 -3.71875 "/></g></g></g></svg>